<svg width="32" height="32" viewBox="0 0 32 32" fill="none" xmlns="http://www.w3.org/2000/svg">
<g clip-path="url(#clip0_3_75)">
<path d="M29.8125 0C28.653 0 3.34063 0 2.1875 0C0.98125 0 0 0.98125 0 2.1875V29.8125C0 31.0187 0.98125 32 2.1875 32H29.8125C31.0187 32 32 31.0187 32 29.8125V2.1875C32 0.98125 31.0187 0 29.8125 0ZM11.5694 1.875H20.4306V7.17562L16.3494 5.53687C16.1256 5.44687 15.8744 5.44687 15.6506 5.53687L11.5694 7.17562V1.875ZM30.125 29.8125C30.125 29.985 29.985 30.125 29.8125 30.125H2.1875C2.015 30.125 1.875 29.985 1.875 29.8125V2.1875C1.875 2.015 2.015 1.875 2.1875 1.875H9.69438V8.5625C9.69438 9.22313 10.3629 9.68013 10.9812 9.4325L16 7.4175L21.0187 9.4325C21.6381 9.68025 22.3056 9.22206 22.3056 8.5625V1.875H29.8125C29.985 1.875 30.125 2.015 30.125 2.1875V29.8125Z" fill="#5D5FEF"/>
<path d="M13.159 17.8125H5.71579C5.19804 17.8125 4.77829 18.2322 4.77829 18.75C4.77829 19.2678 5.19804 19.6875 5.71579 19.6875H13.159C13.6768 19.6875 14.0965 19.2678 14.0965 18.75C14.0965 18.2322 13.6768 17.8125 13.159 17.8125Z" fill="#5D5FEF"/>
<path d="M10.7158 22.7917H5.71579C5.19804 22.7917 4.77829 23.2114 4.77829 23.7292C4.77829 24.2469 5.19804 24.6667 5.71579 24.6667H10.7158C11.2335 24.6667 11.6533 24.2469 11.6533 23.7292C11.6533 23.2114 11.2335 22.7917 10.7158 22.7917Z" fill="#5D5FEF"/>
</g>
<defs>
<clipPath id="clip0_3_75">
<rect width="32" height="32" fill="white"/>
</clipPath>
</defs>
</svg>
