<svg width="32" height="32" viewBox="0 0 32 32" fill="none" xmlns="http://www.w3.org/2000/svg">
<mask id="mask0_3_45" style="mask-type:alpha" maskUnits="userSpaceOnUse" x="0" y="0" width="32" height="32">
<rect width="32" height="32" fill="#4F4F4F"/>
</mask>
<g mask="url(#mask0_3_45)">
</g>
<g clip-path="url(#clip0_3_45)">
<path d="M10.6771 25.0466H6.26038C5.74263 25.0466 5.32288 25.4664 5.32288 25.9841C5.32288 26.5019 5.74263 26.9216 6.26038 26.9216H10.6771C11.1948 26.9216 11.6146 26.5019 11.6146 25.9841C11.6146 25.4664 11.1949 25.0466 10.6771 25.0466Z" fill="#5D5FEF"/>
<path d="M29.8125 15.0625C29.2426 15.0625 25.1238 15.0625 24.4688 15.0625V2.1875C24.4688 0.981313 23.4874 0 22.2812 0C21.7166 0 10.3387 0 9.71875 0C8.51256 0 7.53125 0.981313 7.53125 2.1875V15.0625C6.87262 15.0625 2.69656 15.0625 2.1875 15.0625C0.981313 15.0625 0 16.0438 0 17.25V29.8125C0 31.0187 0.981313 32 2.1875 32H29.8125C31.0187 32 32 31.0187 32 29.8125V17.25C32 16.0438 31.0187 15.0625 29.8125 15.0625ZM21.7925 16.9375H25.27V19.7214L24.3467 19.1555C23.8491 18.8517 23.2242 18.8451 22.7145 19.1563L21.7925 19.7214V16.9375ZM17.7388 1.875V4.65887C16.767 4.06331 16.5411 3.86281 16.0004 3.86281C15.4599 3.86281 15.2337 4.063 14.2613 4.65887V1.875H17.7388ZM9.40625 2.1875C9.40625 2.01519 9.54644 1.875 9.71875 1.875H12.3862V5.2175C12.3862 6.43981 13.7296 7.18519 14.7649 6.54931L16 5.79238L17.2344 6.54887C18.2733 7.18687 19.6137 6.437 19.6137 5.2175V1.875H22.2812C22.4535 1.875 22.5937 2.01519 22.5937 2.1875V15.0625C22.1708 15.0625 10.1081 15.0625 9.40619 15.0625V2.1875H9.40625ZM10.2075 16.9375V19.7214L9.28419 19.1555C8.78662 18.8517 8.16169 18.8451 7.652 19.1563L6.73 19.7214V16.9375H10.2075ZM1.875 29.8125V17.25C1.875 17.0777 2.01519 16.9375 2.1875 16.9375H4.855V20.28C4.855 21.5023 6.19831 22.2477 7.23362 21.6118L8.46875 20.8549L9.70312 21.6114C10.742 22.2494 12.0824 21.4995 12.0824 20.28V16.9375H15.0625V30.125H2.1875C2.01519 30.125 1.875 29.9848 1.875 29.8125ZM30.125 29.8125C30.125 29.9848 29.9848 30.125 29.8125 30.125H16.9375V16.9375H19.9175V20.28C19.9175 21.5007 21.26 22.2481 22.2961 21.6118L23.5312 20.8549L24.7656 21.6114C25.8045 22.2494 27.1449 21.4995 27.1449 20.28V16.9375H29.8125C29.9848 16.9375 30.125 17.0777 30.125 17.25V29.8125Z" fill="#5D5FEF"/>
<path d="M25.7396 25.0466H21.3229C20.8051 25.0466 20.3854 25.4664 20.3854 25.9841C20.3854 26.5019 20.8051 26.9216 21.3229 26.9216H25.7396C26.2573 26.9216 26.6771 26.5019 26.6771 25.9841C26.6771 25.4664 26.2574 25.0466 25.7396 25.0466Z" fill="#5D5FEF"/>
<path d="M13.7917 11.8591H18.2084C18.7261 11.8591 19.1459 11.4394 19.1459 10.9216C19.1459 10.4039 18.7261 9.98412 18.2084 9.98412H13.7917C13.2739 9.98412 12.8542 10.4039 12.8542 10.9216C12.8542 11.4394 13.2739 11.8591 13.7917 11.8591Z" fill="#5D5FEF"/>
</g>
<defs>
<clipPath id="clip0_3_45">
<rect width="32" height="32" fill="white"/>
</clipPath>
</defs>
</svg>
