<svg width="32" height="32" viewBox="0 0 32 32" fill="none" xmlns="http://www.w3.org/2000/svg">
<mask id="mask0_3_56" style="mask-type:alpha" maskUnits="userSpaceOnUse" x="0" y="0" width="32" height="32">
<rect width="32" height="32" fill="#4F4F4F"/>
</mask>
<g mask="url(#mask0_3_56)">
</g>
<g clip-path="url(#clip0_3_56)">
<path d="M16 12.9375C18.9983 12.9375 21.4375 10.4983 21.4375 7.5C21.4375 4.50175 18.9983 2.0625 16 2.0625C13.0017 2.0625 10.5625 4.50175 10.5625 7.5C10.5625 10.4983 13.0017 12.9375 16 12.9375ZM16 3.9375C17.9644 3.9375 19.5625 5.53562 19.5625 7.5C19.5625 9.46438 17.9644 11.0625 16 11.0625C14.0356 11.0625 12.4375 9.46438 12.4375 7.5C12.4375 5.53562 14.0356 3.9375 16 3.9375Z" fill="#5D5FEF"/>
<path d="M27 12.9375C28.8954 12.9375 30.4375 11.3954 30.4375 9.5C30.4375 7.60456 28.8954 6.0625 27 6.0625C25.1046 6.0625 23.5625 7.60456 23.5625 9.5C23.5625 11.3954 25.1046 12.9375 27 12.9375ZM27 7.9375C27.8616 7.9375 28.5625 8.63844 28.5625 9.5C28.5625 10.3616 27.8616 11.0625 27 11.0625C26.1384 11.0625 25.4375 10.3616 25.4375 9.5C25.4375 8.63844 26.1384 7.9375 27 7.9375Z" fill="#5D5FEF"/>
<path d="M27.7563 15.0625H26.3062C24.5976 15.0625 23.1226 16.072 22.4504 17.522C21.0666 16.0114 19.0789 15.0625 16.8737 15.0625H15.1264C12.9211 15.0625 10.9334 16.0114 9.54963 17.522C8.87744 16.072 7.40244 15.0625 5.69375 15.0625H4.24375C1.90375 15.0625 0 16.9547 0 19.2806V26.1063C0 27.116 0.824625 27.9375 1.83825 27.9375H7.57119C7.66731 29.0562 8.60806 29.9375 9.75138 29.9375H22.2487C23.3919 29.9375 24.3327 29.0562 24.4289 27.9375H30.0963C31.1461 27.9375 32.0001 27.0869 32.0001 26.0413V19.2806C32 16.9547 30.0963 15.0625 27.7563 15.0625ZM1.875 19.2806C1.875 17.9886 2.93762 16.9375 4.24375 16.9375H5.69375C6.99988 16.9375 8.0625 17.9886 8.0625 19.2806V19.9226C7.43206 21.5641 7.5625 22.5478 7.5625 26.0625H1.875V19.2806ZM22.5625 27.7487C22.5625 27.9218 22.4218 28.0625 22.2487 28.0625H9.75131C9.57825 28.0625 9.4375 27.9217 9.4375 27.7487V22.6264C9.4375 19.4895 11.9895 16.9375 15.1263 16.9375H16.8736C20.0105 16.9375 22.5625 19.4895 22.5625 22.6263V27.7487ZM30.125 26.0413C30.125 26.0736 30.4745 26.0625 24.4375 26.0625C24.4375 22.5218 24.5669 21.5614 23.9375 19.9226V19.2806C23.9375 17.9886 25.0001 16.9375 26.3062 16.9375H27.7563C29.0624 16.9375 30.125 17.9886 30.125 19.2806V26.0413Z" fill="#5D5FEF"/>
<path d="M5 12.9375C6.89544 12.9375 8.4375 11.3954 8.4375 9.5C8.4375 7.60456 6.89544 6.0625 5 6.0625C3.10456 6.0625 1.5625 7.60456 1.5625 9.5C1.5625 11.3954 3.10456 12.9375 5 12.9375ZM5 7.9375C5.86156 7.9375 6.5625 8.63844 6.5625 9.5C6.5625 10.3616 5.86156 11.0625 5 11.0625C4.13844 11.0625 3.4375 10.3616 3.4375 9.5C3.4375 8.63844 4.13844 7.9375 5 7.9375Z" fill="#5D5FEF"/>
</g>
<defs>
<clipPath id="clip0_3_56">
<rect width="32" height="32" fill="white"/>
</clipPath>
</defs>
</svg>
