<svg width="24" height="24" viewBox="0 0 24 24" fill="none" xmlns="http://www.w3.org/2000/svg">
<mask id="mask0_3_1194" style="mask-type:alpha" maskUnits="userSpaceOnUse" x="0" y="0" width="24" height="24">
<rect width="24" height="24" fill="#F0F0F0"/>
</mask>
<g mask="url(#mask0_3_1194)">
</g>
<path d="M15.899 13.229L15.894 13.227C15.831 13.2 15.77 13.169 15.706 13.144C16.4203 12.5841 16.998 11.8692 17.3955 11.0532C17.7929 10.2372 17.9996 9.3416 18 8.434C17.9976 8.2233 17.9826 8.01292 17.955 7.804C17.9704 7.76424 17.9831 7.72348 17.993 7.682L18.274 5.285C18.3617 4.52753 18.1582 3.76505 17.7048 3.15196C17.2514 2.53888 16.582 2.12102 15.832 1.983L15.042 1.84C13.031 1.47277 10.9701 1.47277 8.95902 1.84L8.16802 1.983C7.41809 2.12102 6.74863 2.53888 6.29522 3.15196C5.84181 3.76505 5.63834 4.52753 5.72602 5.285L6.00602 7.682C6.01625 7.72351 6.02928 7.76427 6.04502 7.804C6.01749 8.01292 6.00246 8.2233 6.00002 8.434C6.00045 9.3416 6.20718 10.2372 6.60459 11.0532C7.00201 11.8692 7.57971 12.5841 8.29402 13.144C8.23002 13.169 8.16902 13.2 8.10602 13.227L8.10102 13.229C6.46395 13.9171 5.04093 15.0309 3.97969 16.4548C2.91846 17.8786 2.2577 19.5606 2.06602 21.326C2.04113 21.5876 2.12023 21.8486 2.28622 22.0523C2.45221 22.2561 2.69175 22.3863 2.95302 22.4148C3.21428 22.4434 3.47627 22.3679 3.68232 22.2047C3.88836 22.0416 4.02189 21.8039 4.05402 21.543C4.19475 20.2451 4.65302 19.0019 5.38834 17.9231C6.12365 16.8444 7.11337 15.9634 8.27002 15.358L11.293 18.381C11.4806 18.5685 11.7349 18.6738 12 18.6738C12.2652 18.6738 12.5195 18.5685 12.707 18.381L15.73 15.358C16.8867 15.9634 17.8764 16.8444 18.6117 17.9231C19.347 19.0019 19.8053 20.2451 19.946 21.543C19.9726 21.7877 20.0885 22.014 20.2715 22.1786C20.4546 22.3432 20.6919 22.4345 20.938 22.435C20.9748 22.4349 21.0115 22.4329 21.048 22.429C21.1786 22.4148 21.3052 22.375 21.4204 22.3119C21.5356 22.2488 21.6373 22.1635 21.7196 22.0611C21.8019 21.9587 21.8632 21.841 21.9 21.7149C21.9367 21.5888 21.9483 21.4566 21.934 21.326C21.7423 19.5605 21.0814 17.8784 20.0199 16.4546C18.9585 15.0307 17.5353 13.917 15.898 13.229H15.899ZM7.71202 5.051C7.68298 4.79862 7.75088 4.54463 7.902 4.34041C8.05312 4.13619 8.27617 3.997 8.52602 3.951L9.31602 3.808C11.0907 3.48369 12.9094 3.48369 14.684 3.808L15.474 3.951C15.7239 3.997 15.9469 4.13619 16.098 4.34041C16.2492 4.54463 16.3171 4.79862 16.288 5.051L16.11 6.565H7.89002L7.71202 5.051ZM12 16.261L10.35 14.61C11.4376 14.3762 12.5624 14.3762 13.65 14.61L12 16.261ZM12 12.435C10.962 12.4338 9.96504 12.0296 9.21923 11.3077C8.47341 10.5857 8.03701 9.60241 8.00202 8.565H15.998C15.963 9.60241 15.5266 10.5857 14.7808 11.3077C14.035 12.0296 13.038 12.4338 12 12.435Z" fill="#222831"/>
</svg>
