<svg width="32" height="32" viewBox="0 0 32 32" fill="none" xmlns="http://www.w3.org/2000/svg">
<mask id="mask0_3_86" style="mask-type:alpha" maskUnits="userSpaceOnUse" x="0" y="0" width="32" height="32">
<rect width="32" height="32" fill="#4F4F4F"/>
</mask>
<g mask="url(#mask0_3_86)">
</g>
<g clip-path="url(#clip0_3_86)">
<path d="M31.0684 30.1015H29.9974V17.7439C29.9974 17.2261 29.5775 16.8062 29.0597 16.8062H25.0423C24.5244 16.8062 24.1046 17.2261 24.1046 17.7439V30.1015H21.9625V22.3828C21.9625 21.8649 21.5427 21.4451 21.0248 21.4451H17.0074C16.4895 21.4451 16.0697 21.8649 16.0697 22.3828V30.1015H13.9277V27.0217C13.9277 26.5039 13.5078 26.0841 12.99 26.0841H8.97253C8.45468 26.0841 8.03485 26.5039 8.03485 27.0217V30.1015H5.89282V15.6324C10.8388 17.0393 16.014 13.0973 15.9364 7.93884C15.536 -2.6168 0.399264 -2.61511 0 7.93903C0 10.896 1.61918 13.4818 4.01746 14.8568V31.0392C4.01746 31.5571 4.43729 31.9769 4.95514 31.9769H31.0684C32.3032 31.9343 32.3177 30.1501 31.0684 30.1015ZM1.87536 7.93897C1.87536 4.57939 4.60863 1.84612 7.96821 1.84612C16.0401 2.15242 16.0379 13.7267 7.96815 14.0318C4.60863 14.0318 1.87536 11.2985 1.87536 7.93897ZM12.0523 30.1015H9.91021V27.9594H12.0523V30.1015ZM20.0872 30.1015H17.9451V23.3205H20.0872V30.1015ZM28.122 30.1015H25.98V18.6816H28.1221V30.1015H28.122Z" fill="#5D5FEF"/>
<path d="M10.9813 8.87677C12.2238 8.83069 12.2233 7.04723 10.9813 7.00141H8.90588V3.92163C8.86043 2.68027 7.07665 2.67846 7.03052 3.92163V7.93902C7.03052 8.45687 7.45035 8.8767 7.9682 8.8767H10.9813V8.87677Z" fill="#5D5FEF"/>
<path d="M26.0747 10.5726L26.6313 10.7219L8.50362 21.1879C8.05509 21.4468 7.90144 22.0203 8.16043 22.4688C8.38072 22.8504 8.92895 23.1078 9.4413 22.812L27.57 12.3454L27.4207 12.9045C27.287 13.4049 27.5842 13.9188 28.0845 14.0525C28.6093 14.1926 29.1054 13.8642 29.2324 13.3886L29.9655 10.6447C30.0992 10.1447 29.8025 9.63113 29.3027 9.49704L26.5608 8.76134C25.3498 8.48366 24.8862 10.2058 26.0747 10.5726Z" fill="#5D5FEF"/>
</g>
<defs>
<clipPath id="clip0_3_86">
<rect width="32" height="32" fill="white"/>
</clipPath>
</defs>
</svg>
