<svg width="32" height="32" viewBox="0 0 32 32" fill="none" xmlns="http://www.w3.org/2000/svg">
<mask id="mask0_3_67" style="mask-type:alpha" maskUnits="userSpaceOnUse" x="0" y="0" width="32" height="32">
<rect width="32" height="32" fill="#4F4F4F"/>
</mask>
<g mask="url(#mask0_3_67)">
</g>
<g clip-path="url(#clip0_3_67)">
<path d="M26.5895 22.7215C25.559 21.4468 24.1088 20.5556 22.506 20.2122L19.4375 19.5546V17.7754C21.0583 16.7746 22.2131 15.0889 22.4953 13.125H22.875C24.4258 13.125 25.6875 11.8633 25.6875 10.3125C25.6875 8.76169 24.4258 7.5 22.875 7.5H22.5625V3.4375C22.5625 1.54206 21.0204 0 19.125 0H11.625C9.04031 0 6.9375 2.10281 6.9375 4.6875C6.9375 5.84044 7.35669 6.89681 8.04963 7.71413C7.03088 8.13731 6.3125 9.14237 6.3125 10.3125C6.3125 11.8633 7.57419 13.125 9.125 13.125H9.50475C9.78694 15.0889 10.9417 16.7746 12.5625 17.7754V19.5546L9.494 20.2122C7.89119 20.5556 6.441 21.4468 5.4105 22.7215C4.38 23.9962 3.8125 25.6009 3.8125 27.2401V31.0625C3.8125 31.5802 4.23225 32 4.75 32H27.25C27.7677 32 28.1875 31.5802 28.1875 31.0625V27.2401C28.1875 25.6009 27.62 23.9962 26.5895 22.7215ZM22.5625 9.375H22.875C23.3919 9.375 23.8125 9.79556 23.8125 10.3125C23.8125 10.8294 23.3919 11.25 22.875 11.25H22.5625V9.375ZM9.4375 11.25H9.125C8.60806 11.25 8.1875 10.8294 8.1875 10.3125C8.1875 9.79556 8.60806 9.375 9.125 9.375H9.4375V11.25ZM10.6875 5.9375V7.33938C9.59619 6.9525 8.8125 5.90981 8.8125 4.6875C8.8125 3.13669 10.0742 1.875 11.625 1.875H19.125C19.9866 1.875 20.6875 2.57594 20.6875 3.4375V5H11.625C11.1073 5 10.6875 5.41975 10.6875 5.9375ZM11.3125 12.1875V9.36344C11.4159 9.37031 11.5199 9.375 11.625 9.375C12.1427 9.375 12.5625 8.95525 12.5625 8.4375V6.875H20.6875V12.1875C20.6875 14.7722 18.5847 16.875 16 16.875C13.4153 16.875 11.3125 14.7722 11.3125 12.1875ZM12.7151 30.125H5.6875V27.2401C5.6875 24.7516 7.45362 22.5669 9.88681 22.0456L12.8759 21.405L13.7851 24.1326L12.7151 30.125ZM14.6198 30.125L15.5349 25H16.4651L17.3803 30.125H14.6198ZM14.9689 21.7547C15.3103 21.8088 15.6551 21.8365 16 21.8365C16.3449 21.8365 16.6898 21.8088 17.0311 21.7547L16.5742 23.125H15.4257L14.9689 21.7547ZM17.5625 19.6942C16.5551 20.0517 15.4449 20.0517 14.4375 19.6942V18.5616C14.9385 18.6844 15.4617 18.75 16 18.75C16.5383 18.75 17.0615 18.6844 17.5625 18.5616V19.6942ZM26.3125 30.125H19.2849L18.2149 24.1326L19.1241 21.405L22.1132 22.0456C24.5464 22.5669 26.3125 24.7516 26.3125 27.2401V30.125Z" fill="#5D5FEF"/>
</g>
<defs>
<clipPath id="clip0_3_67">
<rect width="32" height="32" fill="white"/>
</clipPath>
</defs>
</svg>
