<svg width="32" height="32" viewBox="0 0 32 32" fill="none" xmlns="http://www.w3.org/2000/svg">
<mask id="mask0_3_36" style="mask-type:alpha" maskUnits="userSpaceOnUse" x="0" y="0" width="32" height="32">
<rect width="32" height="32" fill="#4F4F4F"/>
</mask>
<g mask="url(#mask0_3_36)">
</g>
<g clip-path="url(#clip0_3_36)">
<path d="M29.81 16.1225H24.4675V9.60938C24.4675 8.40312 23.4862 7.42188 22.28 7.42188H17.703V2.81219C17.703 1.26156 16.4414 0 14.8908 0H9.57922C8.0286 0 6.76703 1.26156 6.76703 2.81219V7.42188H2.18997C0.983722 7.42188 0.00247192 8.40312 0.00247192 9.60938V29.8125C0.00247192 31.0187 0.983722 32 2.18997 32C17.5287 32 29.1087 31.995 29.81 31.995C31.0162 31.995 31.9975 31.0138 31.9975 29.8075V18.3094C31.9975 17.1031 31.0162 16.1225 29.81 16.1225ZM9.57922 1.875H14.8908C15.4076 1.875 15.828 2.29544 15.828 2.81219V7.42188H8.64203V2.81219C8.64203 2.29544 9.06247 1.875 9.57922 1.875ZM2.18997 30.125C2.01747 30.125 1.87747 29.985 1.87747 29.8125V9.60938C1.87747 9.43688 2.01747 9.29688 2.18997 9.29688H6.76703V12.0606C6.76703 12.5783 7.18678 12.9981 7.70453 12.9981C8.22228 12.9981 8.64203 12.5783 8.64203 12.0606V9.29688H15.828V12.0606C15.828 12.5783 16.2477 12.9981 16.7655 12.9981C17.2832 12.9981 17.703 12.5783 17.703 12.0606V9.29688H22.28C22.4525 9.29688 22.5925 9.43688 22.5925 9.60938V16.1225H13.49C12.2837 16.1225 11.3025 17.1031 11.3025 18.3094V29.8075C11.3025 29.9156 11.3106 30.0212 11.3256 30.125H2.18997ZM30.1225 29.8075C30.1225 29.9794 29.9825 30.12 29.81 30.12C29.2909 30.12 14.2427 30.12 13.49 30.12C13.3181 30.12 13.1775 29.9794 13.1775 29.8075V18.3094C13.1775 18.1375 13.3181 17.9975 13.49 17.9975H29.81C29.9825 17.9975 30.1225 18.1375 30.1225 18.3094V29.8075Z" fill="#5D5FEF"/>
<path d="M25.8367 20.1838C25.3192 20.1838 24.8992 20.6038 24.8992 21.1213V23.9026C24.8992 24.2332 24.7267 24.5238 24.4674 24.6907C24.1515 24.8954 24.3692 24.8394 19.338 24.8394C18.8211 24.8394 18.4005 24.4188 18.4005 23.9026V21.1213C18.4005 20.6038 17.9811 20.1838 17.463 20.1838C16.9455 20.1838 16.5255 20.6038 16.5255 21.1213V23.9026C16.5255 25.4532 17.7874 26.7144 19.338 26.7144C24.4085 26.7144 24.1233 26.7316 24.4674 26.6688C25.778 26.4301 26.7742 25.2807 26.7742 23.9026V21.1213C26.7742 20.6038 26.3542 20.1838 25.8367 20.1838Z" fill="#5D5FEF"/>
</g>
<defs>
<clipPath id="clip0_3_36">
<rect width="32" height="32" fill="white"/>
</clipPath>
</defs>
</svg>
